<svg width="204" height="60" viewBox="0 0 204 60" fill="none" xmlns="http://www.w3.org/2000/svg">
<path d="M203.95 21.4003C204.247 22.4686 203.148 23.7554 202.866 24.913C203.294 25.8963 202.971 26.4003 202.252 27.5775C200.347 30.6915 199.556 34.7481 196.936 38.2659C197.037 36.1105 198.286 33.8498 199.652 31.929C197.329 33.5753 196.095 36.6494 196.508 38.8447C196.841 38.9493 196.594 38.4453 196.936 38.2659C197.208 38.3509 196.927 38.9994 197.329 38.5455C197.49 38.7598 196.982 39.2086 196.83 39.2238C196.533 40.4366 197.228 41.3247 197.672 42.3523C197.742 42.507 197.45 42.6617 197.486 42.8113C197.678 43.5746 198.841 44.3632 199.939 45.1715C200.463 45.0168 201.062 45.3509 201.637 45.5063C200.005 46.324 198.388 47.2274 196.468 46.2238C196.09 46.0851 196.564 45.8098 196.463 45.6254C194.781 44.6022 194.735 43.3255 193.753 42.1926C194.095 41.868 193.541 41.4642 194.055 41.3741C193.687 39.8026 193.868 38.1461 193.717 36.5397C194.649 35.1919 194.685 33.99 195.189 32.7075C195.289 32.3683 194.826 32.6624 194.866 32.3327C196.17 29.1548 196.861 26.2057 198.12 22.823C197.325 22.823 196.851 23.3066 196.146 23.4765C196.034 23.5012 195.677 23.2471 195.511 23.3168C194.241 23.8404 193.55 25.7017 192.242 26.141C192.508 25.2776 193.566 24.6988 194.115 23.791C192.936 23.9805 192.019 25.8462 190.917 26.515C191.581 24.7888 193.294 23.4562 194.574 21.7496C194.251 21.5499 194.014 21.8694 193.753 22.0445C193.924 21.1156 194.921 20.677 195.415 19.9885C193.178 21.0263 191.763 23.7707 189.511 26.3952C189.879 26.3603 190.135 25.6167 190.463 25.3023C190.896 26.7692 188.069 28.2863 188.06 29.7932C188.659 29.5484 188.694 28.2565 189.49 28.4562C188.997 29.0452 188.775 29.2398 188.594 29.8781C187.224 30.1127 187.49 32.1083 186.68 33.0916C186.79 33.3611 186.634 33.6704 186.815 33.9297C184.614 37.6472 183.148 41.6987 179.964 45.2812C179.782 45.1112 180.135 44.8571 179.954 44.682C179.284 44.2833 178.876 45.5259 178.271 45.5455C177.853 45.2717 178.131 44.8817 178.115 44.5433C176.13 44.6726 175.54 42.3923 175.333 41.2049C175.747 40.7053 175.939 39.9725 175.984 39.3037C180.72 33.4308 182.906 27.6777 185.773 21.9195C185.395 22.0989 184.941 21.7896 184.564 21.9348C185.334 21.141 186.015 21.0169 186.543 20.2529C187.485 18.9159 187.233 16.6109 188.967 15.3335C189.727 15.7823 190.442 15.9718 191.455 16.8353C191.551 17.5884 191.531 18.3618 191.389 19.1556C191.606 19.25 191.884 19.714 192.019 19.3146C192.125 19.5296 192.014 19.7743 191.788 20.0386C192.08 20.043 192.282 19.4845 192.553 19.4047C192.961 19.5143 192.397 19.7743 192.805 19.8789C193.137 19.8135 193.461 19.6443 193.762 19.3894C194.09 19.799 194.307 19.5397 194.589 19.6893C195.44 18.6864 196.755 17.828 198.191 17.8375C198.509 17.4838 198.398 17.0844 198.861 17.1345C199.259 17.2739 199.083 17.5034 198.866 17.7329C199.375 17.8077 199.475 17.4838 199.536 17.0299C200.367 17.9377 201.057 17.5085 201.576 17.913C201.924 18.0125 201.627 17.5535 201.96 17.5935C202.206 18.157 202.473 18.7162 203.339 19.1803C202.871 19.7089 203.446 20.0786 202.876 20.6269C203.073 20.767 203.264 20.9065 203.46 21.0466C203.309 21.4156 203.244 21.7649 203.285 22.104C203.556 22.189 203.723 21.5906 203.95 21.4003Z" fill="#006AEB"/>
<path d="M202.18 28.9587C202.29 29.1811 202.17 29.4342 201.94 29.7076C201.502 29.5371 202.086 29.2119 202.18 28.9587Z" fill="#006AEB"/>
<path d="M199.333 32C197.921 33.8479 196.629 36.0227 196.524 38.0963C196.17 38.2688 196.425 38.7537 196.082 38.6531C195.654 36.5411 196.931 33.5838 199.333 32Z" fill="#006AEB"/>
<path fill-rule="evenodd" clip-rule="evenodd" d="M181.328 21.4342C181.389 22.0631 180.908 22.749 180.413 23.4549C179.887 24.2049 179.345 24.9775 179.42 25.7285C179.63 25.8996 179.781 25.6868 179.931 25.4742C180.038 25.3226 180.146 25.1711 180.274 25.1586C180.026 25.5205 179.816 25.9665 179.602 26.421C179.213 27.2464 178.811 28.0998 178.141 28.5289C177.156 31.0525 175.762 33.5452 173.543 35.9373C173.433 36.123 173.507 36.2793 173.582 36.4355C173.635 36.5468 173.688 36.6581 173.674 36.7797C173.4 37.3606 173.069 37.5804 172.737 37.8008C172.446 37.9942 172.154 38.1881 171.9 38.6269C171.688 38.4443 171.817 38.3513 171.944 38.2602C172.047 38.1853 172.149 38.1118 172.059 37.9908C171.486 38.4923 170.954 39.2747 170.421 40.0577C170.091 40.5431 169.761 41.0288 169.421 41.4479C169.729 41.3832 170.005 41.1136 170.282 40.8438C170.653 40.4828 171.023 40.1216 171.47 40.2515C171.078 41.1777 170.054 41.9842 169.051 42.7739C168.496 43.2109 167.948 43.6427 167.517 44.0868C167.428 44.5921 167.202 45.0812 166.698 45.4345C166.428 45.1267 166.608 44.7529 166.873 44.3644C166.409 44.7805 165.92 45.0273 165.431 45.2742L165.431 45.2742C165.019 45.4822 164.607 45.6904 164.209 46C164.119 45.9137 164.162 45.8062 164.204 45.6989C164.247 45.5917 164.289 45.4847 164.2 45.3992C162.838 46.1181 161.314 45.5783 159.878 45.0693L159.878 45.0693C159.5 44.9355 159.128 44.8039 158.767 44.6978C156.604 40.933 156.699 35.9072 160.362 31.7892C161.057 29.0592 162.92 26.2433 165.094 23.5839C165.767 22.7599 166.379 21.84 166.986 20.9287L166.986 20.9287C168.414 18.7821 169.811 16.6837 171.894 16C173.573 17.2662 174.877 18.5882 174.858 20.1225C172.05 22.1965 169.755 24.7142 167.243 28.0097C167.817 28.3732 168.881 27.1519 169.521 26.0869C169.593 26.715 168.973 27.2991 168.325 27.9093C167.582 28.6084 166.804 29.3419 166.988 30.2152C166.169 30.9557 165.814 31.5048 165.218 32.4277C165.144 32.5419 165.066 32.6619 164.983 32.7887C165.115 32.885 165.207 32.7222 165.299 32.5589C165.409 32.3635 165.519 32.1676 165.699 32.4149C165.174 33.5185 164.541 34.3702 163.909 35.2197C163.296 36.0442 162.685 36.8666 162.175 37.9152C162.464 37.815 162.706 37.4356 162.948 37.0559C163.096 36.8233 163.245 36.5906 163.404 36.4221C163.362 37.0933 163.02 37.8122 162.677 38.5316C162.409 39.0937 162.14 39.6562 162.016 40.1964C162.413 39.9823 162.793 39.7923 163.171 39.6036C163.729 39.3248 164.281 39.0489 164.874 38.7025C165.651 38.2478 166.282 37.6031 166.93 36.9405C167.44 36.4195 167.96 35.8873 168.572 35.4276C168.879 35.1947 169.239 35.0042 169.609 34.8084C170.45 34.3641 171.341 33.893 171.775 32.8387C171.935 32.6875 172.108 32.6245 172.281 32.5615C172.432 32.5068 172.582 32.452 172.724 32.3393C175.388 29.2509 177.756 25.86 178.99 22.4132C179.36 22.3205 179.547 22.1141 179.82 21.8124C179.993 21.6219 180.2 21.3934 180.509 21.1316C180.352 20.9549 180.238 21.0521 180.124 21.1493C180.01 21.2464 179.897 21.3434 179.74 21.1668C179.83 20.7418 180.175 20.4865 180.52 20.2308C180.688 20.107 180.855 19.983 180.994 19.8397C181.359 20.0159 181.07 20.5129 180.764 21.037C180.518 21.4587 180.262 21.8978 180.329 22.2017C180.549 22.3031 180.715 22.0661 180.88 21.8294C181.019 21.6307 181.158 21.4322 181.328 21.4342ZM178.051 27.4192C178.605 26.864 179.115 25.5721 179.025 24.8354C178.919 25.105 178.79 25.378 178.661 25.651C178.376 26.2521 178.092 26.8536 178.051 27.4192ZM175.463 29.9822C175.286 30.1879 175.108 30.3935 175.028 30.5832C175.013 30.2751 175.225 29.931 175.437 29.5864C175.58 29.3551 175.723 29.1237 175.797 28.9028C176.149 29.1885 175.806 29.5857 175.463 29.9822Z" fill="#006AEB"/>
<path d="M179.721 30.0293C179.81 30.5867 179.434 31.0667 178.939 31.304C178.861 30.9322 179.518 30.447 179.721 30.0293Z" fill="#006AEB"/>
<path d="M173.051 38C173.171 38.6083 172.493 38.731 172.368 39.3333C171.967 38.9861 172.89 38.4343 173.051 38Z" fill="#006AEB"/>
<path d="M172.123 39.091C172.556 39.2405 171.941 39.9007 171.727 39.4207C171.852 39.266 171.956 39.0031 172.123 39.091Z" fill="#006AEB"/>
<path d="M161.422 7.3335C163.04 7.36935 164.556 9.5968 164.667 10.9772C163.595 11.7727 162.444 12.132 162.102 14.0002C161.169 11.9057 161.293 9.6222 161.422 7.3335Z" fill="#006AEB"/>
<path fill-rule="evenodd" clip-rule="evenodd" d="M154.536 24.2847C154.547 23.8113 154.558 23.3377 154.273 22.9126C153.222 21.9284 152.481 21.2385 151.182 20.6665C150.326 20.8405 150.205 21.4662 150.079 22.1179C150.032 22.36 149.985 22.6057 149.899 22.8331C149.574 23.6799 149.051 24.4235 148.516 25.1841C148.172 25.6731 147.823 26.1692 147.519 26.7041C147.427 26.8659 147.388 27.0478 147.349 27.2335C147.31 27.4181 147.27 27.6064 147.176 27.7824C146.846 28.3852 146.438 28.9683 146.017 29.5704C145.591 30.1788 145.152 30.8066 144.767 31.4936C144.256 32.7335 143.65 33.989 143.044 35.2444C142.149 37.0978 141.254 38.9512 140.667 40.755C140.878 41.1339 141.042 41.5187 141.207 41.9032C141.442 42.4514 141.676 42.9989 142.044 43.5276C142.201 43.4757 142.349 43.3762 142.497 43.277C142.787 43.082 143.077 42.8877 143.423 43.0554C143.684 43.1811 143.665 43.3504 143.647 43.5193C143.627 43.6973 143.607 43.8748 143.915 43.9998C144.281 43.4437 144.769 43.6341 145.256 43.8242C145.287 43.8363 145.318 43.8484 145.349 43.8603C147.051 39.1655 150.654 33.7592 153.696 29.5758C153.494 28.9871 153.91 28.3013 154.327 27.6133C154.444 27.4189 154.562 27.2243 154.667 27.0317C154.495 26.7954 154.365 26.8252 154.235 26.8549C154.117 26.882 153.999 26.9091 153.85 26.7338C154.212 26.5928 154.408 26.0787 154.562 25.6741C154.599 25.5784 154.633 25.4889 154.667 25.4118C154.517 25.0535 154.526 24.6691 154.536 24.2847ZM147.246 38.5987C146.872 39.0834 146.499 39.5679 146.2 40.0594C146.528 38.5681 147.617 37.1798 148.622 35.8989C148.718 35.776 148.814 35.6541 148.908 35.5331C148.787 36.5975 148.016 37.5985 147.246 38.5987Z" fill="#006AEB"/>
<path fill-rule="evenodd" clip-rule="evenodd" d="M154.667 13.8665C154.442 13.9706 154.348 14.1688 154.256 14.3624C154.155 14.5759 154.057 14.7839 153.789 14.8539C153.694 14.6194 153.672 14.3741 153.649 14.1289C153.598 13.5909 153.548 13.0533 152.745 12.6306C150.8 12.6337 149.092 14.1331 147.354 15.6599C146.289 16.5953 145.212 17.541 144.062 18.1593C143.716 18.3456 143.333 18.4871 142.934 18.6347L142.934 18.6347C141.812 19.0495 140.561 19.5122 139.629 21.1526C139.971 21.0275 140.252 20.7285 140.538 20.4254C140.944 19.9935 141.359 19.5531 141.966 19.5938C140.381 22.075 138.215 24.666 136.095 26.5621C136.406 25.7525 136.942 25.0807 137.5 24.3804L137.5 24.3804C137.987 23.7711 138.49 23.1403 138.877 22.3784C136.711 24.4724 134.606 26.9291 132.58 29.9267C132.949 29.7004 133.293 29.3396 133.637 28.979L133.637 28.9789L133.637 28.9789L133.637 28.9789C133.761 28.8492 133.884 28.7196 134.009 28.5962C133.982 29.3525 133.455 30.1901 132.928 31.0282C132.563 31.6093 132.197 32.1907 131.998 32.7453C132.348 32.7622 132.626 32.3386 132.904 31.914C133.04 31.706 133.177 31.4978 133.322 31.3411C133.257 31.7037 133.021 32.582 132.645 32.4729C132.035 33.7351 131.874 34.9287 131.712 36.1223C131.598 36.9609 131.485 37.7995 131.216 38.6618C131.391 38.6958 131.547 38.5874 131.692 38.4184C131.792 38.9336 131.432 39.3791 131.049 39.8518C130.739 40.2354 130.414 40.637 130.308 41.1084C130.281 41.3313 130.258 41.5652 130.234 41.8056C130.065 43.5079 129.864 45.5382 127.957 46.3344C127.38 46.1408 126.844 46.1957 126.373 46.6667C125.997 46.3098 125.686 46.3149 125.405 46.5576C124.601 46.1695 124.357 45.6921 124.113 45.2149C123.927 44.8501 123.741 44.4855 123.304 44.1609C123.329 43.8291 123.289 43.5081 123.248 43.1877C123.191 42.7268 123.133 42.2671 123.269 41.778C121.554 41.411 120.265 40.126 119.378 38.9739C119.434 38.8845 119.499 38.8539 119.563 38.8232C119.631 38.7908 119.7 38.7583 119.759 38.6568C119.308 38.1915 119.143 37.6818 118.977 37.1717C118.835 36.7347 118.692 36.2973 118.37 35.8874C118.528 34.8694 118.431 33.8887 118.335 32.9082L118.335 32.9082C118.299 32.5453 118.263 32.1825 118.24 31.8178C118.301 31.6381 118.262 31.6673 118.189 31.7229C118.098 31.7918 117.954 31.9011 117.879 31.7037C117.874 31.6545 117.867 31.6058 117.859 31.557L117.859 31.557L117.859 31.557L117.859 31.557C117.819 31.3002 117.779 31.0424 118.15 30.7213C117.809 30.8845 117.743 30.6715 117.664 30.3739C116.966 31.2042 116.592 31.9846 116.217 32.7651C115.811 33.6121 115.404 34.4593 114.585 35.3709C114.546 35.4448 114.606 35.5038 114.666 35.5629C114.731 35.6268 114.795 35.6906 114.735 35.7733C112.76 39.5005 109.842 42.1211 106.853 43.6495C106.698 43.631 106.755 43.6057 106.883 43.5491C107.065 43.4688 107.389 43.3255 107.45 43.0493C107.181 42.8421 106.797 42.7986 106.423 42.7561C105.865 42.6926 105.327 42.6315 105.219 42.0315C105.031 41.8872 104.869 41.9217 104.708 41.9562C104.563 41.9869 104.419 42.0177 104.256 41.9217C104.081 41.5452 103.869 41.1749 103.656 40.8045C103.211 40.0282 102.765 39.2518 102.667 38.4184C102.862 36.5721 103.068 34.7208 103.333 32.8594C104.253 31.4703 104.919 30.005 105.595 28.5188C106.404 26.7399 107.226 24.9312 108.513 23.1874C108.79 22.8121 109.068 22.3754 109.358 21.9212L109.358 21.9211C109.808 21.2152 110.285 20.467 110.824 19.8416L111.051 19.5789C112.638 17.7373 114.561 15.5064 116.676 14.924C116.976 15.1434 117.284 15.3613 117.592 15.5792L117.592 15.5792L117.592 15.5792L117.592 15.5792C118.732 16.3866 119.87 17.1923 120.616 18.0603C120.822 18.3428 120.802 18.6555 120.682 18.9885C120.839 19 120.972 18.8565 121.105 18.7131C121.314 18.4873 121.523 18.2617 121.83 18.6411C121.858 18.561 121.938 18.4734 122.017 18.3861C122.179 18.208 122.34 18.0312 122.06 17.9217C122.145 17.7594 122.267 17.8256 122.388 17.8915C122.519 17.9627 122.649 18.0336 122.732 17.8169C122.953 18.1746 123.179 18.2681 123.417 18.3664C123.602 18.4429 123.794 18.5222 123.996 18.7307C124.667 19.4187 124.648 20.1748 124.628 20.9655C124.615 21.4747 124.602 21.9983 124.773 22.5272C124.377 23.0184 124.197 23.4699 124.216 23.8967C124.436 23.9832 124.479 23.7869 124.517 23.608C124.552 23.4474 124.584 23.301 124.738 23.3853C124.983 23.8246 124.843 24.3247 124.702 24.8247C124.558 25.336 124.414 25.8472 124.683 26.2934C124.59 26.4245 124.541 26.5481 124.493 26.6713C124.423 26.8518 124.353 27.0313 124.142 27.2317C124.094 27.3431 124.213 27.4261 124.333 27.5103C124.379 27.5424 124.425 27.5747 124.462 27.6088C123.992 28.3002 123.835 28.943 123.678 29.5864C123.525 30.2136 123.371 30.8413 122.928 31.5151C123.289 31.6246 123.369 31.329 123.459 30.9967C123.525 30.7569 123.595 30.498 123.78 30.3587C123.719 31.3327 123.463 32.3368 123.208 33.3411C122.817 34.8803 122.426 36.42 122.732 37.8528C123.349 38.2992 123.961 38.7413 124.578 39.1826C125.259 39.0584 125.605 37.7929 125.731 37.2172C126.946 34.1796 128.747 31.1576 130.557 28.1204C132.266 25.2526 133.983 22.3712 135.222 19.4501C134.978 19.5202 134.735 19.6001 134.492 19.6799C133.155 20.1201 131.814 20.5613 130.219 19.3808C130.178 19.0343 129.903 18.7231 129.629 18.4119C129.329 18.0718 129.029 17.7318 129.035 17.346C129.352 17.177 129.67 17.007 129.987 16.8369L129.987 16.8368L129.988 16.8367L129.988 16.8366C133.029 15.2074 136.073 13.5766 139.274 12.9383C139.798 11.9534 140.325 10.9543 140.856 9.94934C142.625 6.60003 144.43 3.1842 146.257 0C148.382 1.3585 147.684 3.15522 146.986 4.9529C146.58 5.99883 146.173 7.04509 146.323 8.00555C145.589 8.75609 145.628 9.38627 145.668 10.0176C145.678 10.175 145.688 10.3324 145.686 10.4918C145.792 10.546 145.888 10.5435 145.985 10.5409C146.147 10.5366 146.308 10.5323 146.508 10.7894C146.724 10.5863 146.969 10.6415 147.244 10.7034C147.391 10.7366 147.547 10.7717 147.712 10.7699C147.779 10.7699 147.854 10.7131 147.932 10.6544C148.017 10.5903 148.105 10.5238 148.189 10.5265C148.257 10.529 148.322 10.5999 148.387 10.6701C148.451 10.7389 148.514 10.8071 148.579 10.8096C148.838 10.815 149.134 10.8077 149.449 10.8C150.57 10.7723 151.944 10.7385 152.871 11.2459C153.964 11.8462 154.621 12.8986 154.667 13.8665ZM134.665 24.0607C135.061 23.3967 135.605 22.9046 136.096 22.4596C136.744 21.8735 137.301 21.369 137.313 20.6607C137.06 20.9727 136.765 21.2843 136.463 21.6037C135.761 22.3462 135.02 23.1309 134.665 24.0607ZM122.845 32.1569C122.949 32.3302 123.051 32.502 122.948 32.7062C122.848 32.6311 122.753 32.5625 122.652 32.4924C122.827 32.3811 122.763 32.3067 122.698 32.2319C122.632 32.1567 122.567 32.0809 122.743 31.9666C122.77 32.0313 122.808 32.0942 122.845 32.1569ZM120.326 19.4696C120.043 19.5718 119.757 19.6462 119.47 19.7206C118.545 19.9608 117.619 20.2011 116.841 21.3758C116.079 21.6236 115.372 22.3929 115.157 23.2618C113.498 24.4256 112.527 25.9179 111.517 27.4708C111.058 28.1762 110.59 28.8942 110.047 29.5995C110.133 29.5558 110.212 29.4743 110.291 29.3931C110.409 29.2704 110.527 29.1483 110.669 29.1575C110.511 29.9868 109.917 30.7536 109.329 31.5131C108.759 32.2485 108.194 32.9771 108.037 33.7486C107.956 33.8475 107.906 34.0259 108.067 33.9118C108.257 33.4452 108.338 33.3758 108.754 33.3809C108.77 33.7205 108.547 34.0961 108.324 34.4719C108.065 34.9091 107.806 35.3467 107.922 35.7285C112.8 31.7882 117.418 25.1326 120.326 19.4696ZM109.567 30.449C109.422 30.543 109.279 30.6363 109.2 30.7509C109.11 30.3291 109.751 29.9267 110.002 29.8617C110.059 30.1301 109.811 30.2906 109.567 30.449Z" fill="#006AEB"/>
<path d="M136 28C135.39 29.1114 135.008 30.1768 134.083 31.3333C134.052 31.147 134.026 30.9549 134 30.7694C134.625 29.9683 135.57 28.1297 136 28Z" fill="#006AEB"/>
<path fill-rule="evenodd" clip-rule="evenodd" d="M111.357 13.8241C111.753 13.5871 111.966 12.9659 112 12.5364C111.405 11.9752 110.858 12.0098 110.255 12.0481C109.95 12.0674 109.632 12.0875 109.286 12.0329C108.218 11.8606 106.468 12.3985 105.597 12.8668C105.36 13.0333 105.389 13.1578 105.418 13.2818C105.44 13.375 105.461 13.4678 105.37 13.5778C103.678 14.2046 102.056 15.2756 100.433 16.3466L100.433 16.3466C98.6703 17.5102 96.9076 18.6738 95.0564 19.2673C94.5132 19.9431 93.9299 20.397 93.3166 20.6441C93.2261 20.1264 92.8304 19.981 92.3842 19.817C92.0478 19.6934 91.6828 19.5593 91.398 19.2472C91.1441 19.5351 90.8441 19.5247 90.5438 19.5142C90.2472 19.5038 89.9503 19.4934 89.6974 19.7708C90.0334 20.4811 90.2557 21.2115 90.132 21.9907C89.2014 23.9718 88.5505 26.0925 87.899 28.2155L87.899 28.2155C87.2148 30.4449 86.5298 32.6768 85.5192 34.7523C85.2993 35.2051 85.1406 35.6917 84.9833 36.1738C84.8716 36.5161 84.7607 36.856 84.6293 37.1798C84.5687 37.3309 84.4502 37.4602 84.3356 37.5853C84.2256 37.7053 84.1193 37.8214 84.071 37.949C83.9089 38.374 84.055 38.7374 84.2041 39.1082C84.3686 39.5175 84.5368 39.9359 84.2983 40.4562C84.5891 40.7518 84.7667 41.0648 84.9441 41.3776C85.1046 41.6606 85.2651 41.9434 85.5092 42.2129C85.6528 42.4125 85.7591 42.3694 85.8654 42.3262C85.9718 42.283 86.0782 42.2398 86.2219 42.4399C86.2561 42.548 86.2647 42.66 86.2734 42.772C86.2821 42.8848 86.2908 42.9976 86.3255 43.1064C86.7945 43.261 87.1751 42.8537 87.5558 42.4463C87.709 42.2823 87.8622 42.1184 88.0211 41.991C88.0624 42.1236 88.0667 42.262 88.0709 42.4003C88.0814 42.7406 88.0918 43.0806 88.6545 43.3333C89.3957 41.6901 90.0977 40.0519 90.6074 38.4482C90.7361 38.3415 90.6086 38.2761 90.4821 38.2111C90.3565 38.1466 90.2318 38.0826 90.36 37.9792C90.5761 37.4576 90.8123 36.9332 91.0485 36.409L91.0485 36.409C91.7035 34.9548 92.3578 33.5023 92.5796 32.1166C92.4925 32.236 92.4208 32.3854 92.3492 32.5347C92.1809 32.8853 92.0128 33.2357 91.6453 33.1974C91.8839 32.6199 92.2991 32.0265 92.6952 31.4605C93.1856 30.7596 93.6467 30.1007 93.7069 29.5655C93.5085 29.7514 93.3456 30.0365 93.202 30.2879C93.0521 30.5503 92.9232 30.776 92.7969 30.8137C92.1867 30.0554 93.0434 28.8254 93.7225 27.8504C93.967 27.4994 94.1885 27.1814 94.3102 26.9305C94.3304 27.1796 94.1974 27.4544 94.0645 27.7292C94.005 27.852 93.9456 27.9749 93.8999 28.0954C94.4438 28.0358 94.4882 28.3324 94.4288 28.7762C95.619 26.9446 97.0982 25.2265 98.5314 23.5618C99.8664 22.0112 101.162 20.5068 102.146 19.0001C102.434 18.752 102.801 18.5161 103.179 18.2728C104.019 17.7333 104.915 17.1575 105.123 16.3313C104.686 16.6542 104.251 16.9893 103.816 17.3245C102.636 18.2334 101.456 19.1428 100.238 19.8103C101.112 18.7599 102.051 18.1393 102.99 17.5185C103.742 17.0219 104.494 16.5253 105.212 15.8085C105.323 15.9807 105.398 15.9166 105.474 15.8525C105.549 15.7883 105.624 15.724 105.736 15.8968C105.723 15.9135 105.705 15.9372 105.683 15.9655L105.683 15.9656L105.683 15.9657C105.523 16.1723 105.171 16.6267 105.484 16.4448C105.67 16.2658 105.722 16.1084 105.775 15.9511C105.802 15.8698 105.829 15.7885 105.875 15.7043C106.388 15.4699 106.887 15.1382 107.386 14.8064C108.63 13.9795 109.875 13.1517 111.357 13.8241ZM100.891 16.5135C101.063 16.3115 101.235 16.1102 101.469 16.3112C101.36 16.3621 101.26 16.4669 101.16 16.5718C100.969 16.7715 100.778 16.9715 100.525 16.7996C100.66 16.784 100.775 16.6486 100.891 16.5135ZM99.4276 19.5137C99.5165 19.3648 99.6283 19.2687 99.7245 19.1861C99.8896 19.0441 100.009 18.9417 99.8872 18.6798C99.8465 18.7816 99.7486 18.8924 99.6509 19.0031C99.488 19.1876 99.3253 19.3718 99.4276 19.5137ZM97.376 21.6873C96.9977 22.0695 96.6025 22.4686 96.3174 22.9682C96.426 22.4992 97.7463 20.5895 98.4383 20.2635C98.248 20.8065 97.8238 21.235 97.376 21.6873Z" fill="#006AEB"/>
<path d="M108.667 15.3335C108.077 16.8256 106.137 17.1033 105.062 18.4879C104.733 18.9134 104.265 19.7844 103.645 20.1338C103.534 20.195 103.2 20.0464 103.064 20.1442C102.649 20.4361 102.13 21.2056 101.55 21.7184C100.868 22.3238 100.007 22.5649 100.04 23.2927C99.5087 23.2725 99.131 24.257 98.6665 24.6668C100.408 20.5592 103.95 18.9283 106.606 16.0254C107.138 16.4464 107.98 15.5694 108.667 15.3335Z" fill="#006AEB"/>
<path d="M103.292 21.3335C102.692 21.8344 102.745 22.4487 102.041 22.6668C102.286 22.2465 102.416 21.3617 103.292 21.3335Z" fill="#006AEB"/>
<path d="M100.329 23.4274C100.34 23.7782 100.116 24.1703 99.7975 24.5729C99.438 24.0103 99.9174 23.7519 100.329 23.4274Z" fill="#006AEB"/>
<path d="M99.0321 24.1462C99.0894 24.533 98.8286 25.3796 98.2964 25.1475C98.2496 24.7141 98.7818 24.4557 99.0321 24.1462Z" fill="#006AEB"/>
<path d="M97.4324 25.7191C97.8704 25.8889 97.2967 26.2817 97.1663 26.2967C96.9318 26.1991 97.1768 25.6004 97.4324 25.7191Z" fill="#006AEB"/>
<path d="M87.9435 18.8157C88.205 19.0353 88.3705 18.6265 88.6668 19.0447C87.1701 21.8831 85.4018 27.7106 81.8208 29.1841C81.5891 29.448 81.8208 29.6379 81.5891 29.9068C80.7053 30.4895 79.8215 31.0766 78.9675 31.8536C76.5267 31.7891 76.1047 35.7176 74.5579 37.247C74.1657 36.0518 75.0198 34.6623 75.3212 33.3627C73.1962 35.4639 73.3822 37.9442 73.7743 39.9368C75.2906 40.5688 77.25 39.4881 78.9624 38.3581C80.5092 37.3361 82.0968 35.8278 83.6792 34.3687C83.905 34.6775 83.6792 35.0559 84.006 35.3451C81.8157 37.6449 81.4032 40.7529 79.4395 42.989C79.3698 43.1383 79.6211 43.2434 79.7562 43.3673C78.8418 43.9348 77.9827 44.8814 76.9283 44.5777C76.4257 45.0213 75.9435 45.6237 75.2957 45.175C75.547 44.9264 76.0895 44.8713 76.059 44.543C75.0648 44.8119 73.6581 44.622 72.3923 44.2588C71.7046 44.0595 71.7997 43.5021 71.3124 42.8846C70.6095 41.9981 69.5848 41.5444 70.1672 40.584C69.5245 40.3398 69.8411 39.9513 69.3335 39.6874C69.6806 39.3192 69.7605 38.9952 69.7808 38.6763C69.1984 37.1723 70.0873 35.4349 70.0466 33.8454C71.2471 31.4354 72.6588 28.6268 73.6334 26.5255C74.4671 26.0022 74.3168 25.4144 75.1251 24.4982C75.311 24.2395 75.0343 24.0546 75.0147 23.8307C76.5514 21.973 77.5158 19.9116 79.0626 18.3228C79.7765 16.51 82.1222 15.957 83.4432 14.3885C84.1309 14.5675 84.7133 14.0703 85.3669 14C85.738 14.1696 85.3771 14.3138 85.2514 14.3631C85.5623 14.3834 85.6879 14.8915 86.3458 15.3003C88.2347 15.6287 88.1447 17.6103 87.9435 18.8157Z" fill="#006AEB"/>
<path d="M75.5504 37.5637C75.8526 37.7913 75.3054 38.39 75.0604 38.4366C74.8885 38.1992 75.4358 37.8477 75.5504 37.5637Z" fill="#006AEB"/>
<path d="M71.7466 26.6665C71.9494 27.0443 71.2249 27.5509 70.9174 27.9998C70.7297 27.6046 71.3915 26.902 71.7466 26.6665Z" fill="#006AEB"/>
<path fill-rule="evenodd" clip-rule="evenodd" d="M21.3931 36.4887C21.7728 35.9739 22.1416 35.4739 22.4399 35.0133C22.3425 35.2196 22.3014 35.4165 22.2604 35.6129C22.2069 35.8688 22.1537 36.124 21.9762 36.3986C22.3384 36.183 22.6609 35.7066 22.9826 35.2314L22.9827 35.2314C23.1701 34.9546 23.3573 34.6781 23.5519 34.4538C23.4308 33.3456 24.3903 32.0686 25.35 30.7911L25.4377 30.6744C25.5301 30.469 25.624 30.2633 25.718 30.0576L25.7182 30.057L25.7183 30.0569C26.4043 28.5546 27.0901 27.0526 27.2131 25.6386C26.673 26.3845 26.1744 27.4258 25.6589 28.5025C24.7558 30.3886 23.8008 32.3832 22.4795 33.0887C22.6386 32.742 22.9044 32.2946 23.2 31.7971C23.5626 31.187 23.97 30.5014 24.2802 29.8334C24.3218 29.7437 24.2664 29.6847 24.2104 29.6251C24.1586 29.5698 24.1063 29.5141 24.1302 29.4331C24.1569 29.3355 24.3332 29.0757 24.4926 28.8409C24.6648 28.5872 24.8171 28.3627 24.7396 28.4035C24.4997 28.5214 24.4273 28.7191 24.3607 28.901C24.2736 29.139 24.1964 29.35 23.7668 29.3193C23.9936 28.964 24.2789 28.6004 24.564 28.2368C25.0376 27.633 25.511 27.0293 25.7167 26.4644C25.8262 26.287 25.6995 26.3242 25.5716 26.3618C25.4426 26.3997 25.3124 26.4379 25.4225 26.2564C26.1889 25.5509 26.2135 24.9591 26.238 24.3681C26.2538 23.9897 26.2695 23.6116 26.4797 23.2042C26.5747 23.1028 26.6985 23.2017 26.8225 23.3007C26.8614 23.3318 26.9003 23.3628 26.9384 23.3878C27.4349 22.749 27.9768 22.4005 28.5186 22.0521C29.1688 21.6339 29.8189 21.2158 30.3905 20.296C31.1748 19.9784 31.9119 19.3636 32.6488 18.7489C34.0821 17.5534 35.5149 16.3584 37.2933 17.3518C37.6956 18.0905 37.7336 18.8914 37.7715 19.6897L37.7716 19.6919C37.775 19.7644 37.7785 19.8369 37.7822 19.9093C36.7594 21.3326 35.5934 22.7067 34.4391 24.0668C31.9183 27.0373 29.4537 29.9416 28.6597 33.1484C28.5636 33.2914 28.4514 33.3311 28.3395 33.3707C28.2079 33.4173 28.0766 33.4637 27.9718 33.6777C27.2232 36.6852 27.0285 39.6042 28.6446 42.2409C28.8207 42.3688 28.9981 42.4968 29.1755 42.6249L29.1782 42.6269C29.3565 42.7556 29.5348 42.8843 29.7119 43.0128C29.6412 43.1055 29.5704 43.201 29.4994 43.297L29.4277 43.3937C30.1555 43.9907 30.5544 44.0838 30.9362 44.173C31.2949 44.2567 31.6386 44.337 32.2258 44.828C32.6794 44.5861 33.9068 44.8085 33.9616 45.4918C37.3084 44.8532 40.4411 41.4698 42.7105 38.2189C42.5951 38.3031 42.187 37.987 42.3514 37.8927L42.4484 37.761L42.4491 37.7601C42.6755 37.4529 42.9019 37.1458 43.1245 36.8386C43.2788 36.7594 43.4281 36.6758 43.578 36.5815C43.3297 36.4716 43.4898 36.2968 43.6487 36.1234C43.7261 36.039 43.8031 35.9549 43.8326 35.8788C43.9329 36.0725 43.8377 36.3043 43.643 36.5412C44.7344 35.8356 45.7578 34.7012 46.7814 33.5666L46.7814 33.5665C47.6149 32.6427 48.4485 31.7186 49.3191 31.0258C48.9713 31.6096 48.6423 32.1905 48.3133 32.7714L48.3133 32.7715L48.3132 32.7715L48.3132 32.7716L48.3132 32.7716L48.3131 32.7717L48.3131 32.7717C47.5855 34.0564 46.8581 35.3408 45.9275 36.6557C46.0869 37.5363 46.0321 38.4514 45.8424 39.386C46.375 39.7619 46.6395 40.179 46.9037 40.5958C47.1791 41.03 47.4541 41.4638 48.0318 41.85C48.2812 41.9315 48.5355 42.0454 48.7897 42.1591L48.7897 42.1591C49.5835 42.5145 50.3754 42.8691 51.0102 42.2359C51.4581 40.5682 52.3316 38.9131 53.1042 37.4491L53.1043 37.4489L53.1045 37.4485L53.1046 37.4483L53.1049 37.4478L53.1049 37.4478C53.4068 36.8757 53.6933 36.3328 53.933 35.8298C53.6655 35.5927 53.4775 35.8576 53.2888 36.1235C53.1502 36.3186 53.0114 36.5142 52.8404 36.5124C52.9495 36.3232 53.0479 36.1381 53.1427 35.9597C53.5339 35.2238 53.8643 34.6023 54.631 34.276C54.6508 34.1502 54.603 34.0346 54.555 33.9186C54.4822 33.7425 54.409 33.5656 54.5712 33.3508C55.2049 32.4921 55.5986 31.5469 55.9918 30.6028C56.3507 29.7411 56.7092 28.8804 57.2495 28.0874C57.7826 27.3045 58.4994 26.6709 59.2138 26.0393C60.0166 25.3296 60.8165 24.6225 61.3499 23.7089C61.941 23.4022 62.4911 22.8371 63.0411 22.2721C63.9903 21.2972 64.9392 20.3224 66.098 20.6762C65.929 21.0941 65.76 21.5328 65.5879 21.9796L65.5875 21.9806L65.5871 21.9817L65.5866 21.9829C65.0278 23.4338 64.4367 24.9686 63.7088 26.1476C63.7889 26.7611 63.5646 27.3306 63.305 27.9088C62.7809 29.053 62.4473 30.2206 62.1139 31.3875L62.1138 31.3875L62.1138 31.3876L62.1138 31.3876L62.1138 31.3876L62.1138 31.3876L62.1138 31.3877C61.9585 31.9309 61.8034 32.474 61.629 33.0145C61.3144 33.9804 60.8311 34.8243 60.3552 35.6553C59.8732 36.4969 59.3989 37.3252 59.1151 38.2534C59.2347 38.6484 59.2659 39.0572 59.2972 39.4662C59.3729 40.4559 59.4486 41.4461 60.7759 42.2409C60.8264 42.2258 60.8767 42.2102 60.927 42.1947C61.5336 42.0078 62.1357 41.8223 62.8362 42.2611C64.8433 40.9582 65.8807 38.6053 66.8524 36.4012L66.871 36.359C66.5835 36.4287 66.3279 36.6941 66.0723 36.9595L66.0722 36.9595C65.7649 37.2786 65.4577 37.5975 65.0956 37.5759C65.2064 37.3623 65.3233 37.1786 65.4285 37.0135C65.745 36.5165 65.9547 36.1871 65.5694 35.7153C65.4826 35.9138 65.3043 36.1658 65.1021 36.4516C64.7342 36.9714 64.287 37.6031 64.1674 38.2289C64.058 38.17 63.9697 38.2426 63.8814 38.3154C63.7928 38.3883 63.7042 38.4612 63.5941 38.4017C63.5916 37.8458 63.8071 37.519 64.0287 37.1829C64.2428 36.8583 64.4626 36.5249 64.497 35.9681C64.6844 36.0051 64.8465 35.8889 65.0086 35.7728C65.1273 35.6878 65.246 35.6028 65.3746 35.5778C65.685 35.0322 66.0336 34.4806 66.3821 33.9292C67.2661 32.5304 68.1497 31.1323 68.4078 29.8334C67.7511 30.6622 67.2094 31.564 66.6756 32.4528L66.6756 32.4529C65.7944 33.9201 64.9347 35.3515 63.6143 36.359C63.7548 35.1371 64.6642 34.1364 65.6447 33.0576C66.3357 32.2974 67.062 31.4983 67.5792 30.5556C67.9673 29.6156 68.5908 28.6523 69.1948 27.7192C69.7793 26.8163 70.3454 25.9417 70.6621 25.1439C72.9467 23.2387 73.7046 20.152 70.6419 18.519C70.8069 18.358 70.7704 18.2282 70.7337 18.0977C70.7016 17.9837 70.6694 17.8691 70.7717 17.7327C67.8143 14.2398 64.3528 15.8772 61.6189 17.292C61.7386 17.1048 61.7884 16.9263 61.7091 16.7679L61.4753 16.9099L61.4753 16.9099L61.4752 16.91C60.7954 17.3235 60.1186 17.7352 59.4295 18.0589C59.4351 17.9379 59.4025 17.8223 59.3699 17.7065C59.3183 17.5236 59.2666 17.3402 59.3646 17.1343C58.2274 16.2437 57.0851 15.353 56.1375 15.6842C56.3093 17.0919 55.5449 18.6463 54.7807 20.2002C54.3226 21.1316 53.8647 22.0628 53.6085 22.9622C53.0312 23.7201 52.7101 24.5791 52.3885 25.4396C52.1182 26.1626 51.8475 26.8868 51.4241 27.5531C51.1852 27.9256 50.8038 28.2417 50.3769 28.5956C50.0901 28.8333 49.7827 29.0881 49.4842 29.3885C49.0124 29.8606 48.5898 30.2936 48.1914 30.7019C47.1953 31.7226 46.3495 32.5892 45.259 33.5293C44.7342 33.9817 44.1641 34.3356 43.5894 34.6924L43.5894 34.6924C42.8698 35.1391 42.1429 35.5904 41.4882 36.2453C40.6494 36.665 39.8181 37.1339 38.9865 37.6029C36.6727 38.9079 34.3573 40.2138 31.8768 40.4653C31.8625 39.8136 31.8793 39.1562 31.8961 38.4992V38.4991V38.4991V38.499V38.499V38.4989V38.4989V38.4988V38.4988V38.4987V38.4986V38.4986V38.4985C31.9142 37.789 31.9323 37.08 31.9114 36.3792C35.1587 35.0335 38.3159 33.1578 41.3086 30.2395C41.1889 30.4275 41.1341 30.6053 41.2192 30.7587C41.5625 30.1066 42.1898 29.5897 42.8701 29.0291L42.8701 29.0291L42.8702 29.029L42.8702 29.0289C43.439 28.5603 44.0447 28.0611 44.5525 27.4269C44.3013 27.7526 44.117 28.0673 44.1766 28.3444C44.6314 28.4242 44.9883 27.8931 45.3451 27.3621C45.4968 27.1362 45.6486 26.9104 45.8078 26.7316C45.6931 26.5339 45.5054 26.6752 45.3695 26.7775C45.2569 26.8623 45.1799 26.9203 45.2093 26.7366C46.3761 25.8805 47.2891 24.2532 47.8177 23.1898C47.5055 23.0887 47.5787 22.9273 47.6522 22.7654C47.6902 22.6815 47.7283 22.5975 47.7131 22.5216C48.8087 21.0729 49.3471 19.9623 49.9339 18.7518C50.0605 18.4907 50.1894 18.2249 50.3265 17.9501C50.1224 16.8226 48.7501 15.8729 47.3641 14.9275C45.2863 14.9982 43.4031 16.2985 41.5192 17.5993C40.6216 18.2192 39.7238 18.8391 38.8048 19.3261C39.3156 18.4145 38.7292 17.6795 38.1393 16.9401C38.0438 16.8204 37.9482 16.7006 37.8572 16.5799C37.4137 16.4762 36.9594 16.3128 36.4553 15.8678C34.0532 15.27 31.7902 15.5697 29.5287 15.8692C29.1891 15.9141 28.8496 15.9591 28.5097 16.001C27.3031 16.5745 26.0914 17.1157 24.8797 17.657L24.8796 17.657C20.3312 19.6888 15.7826 21.7207 11.5015 25.455C11.9681 25.8998 12.0391 26.4054 12.1101 26.911C12.1947 27.5136 12.2793 28.1163 13.0332 28.6166C13.4768 28.5324 13.9354 28.5468 14.4748 29.0717C15.5523 28.7482 16.5858 28.1403 17.6196 27.5321C19.0689 26.6796 20.5187 25.8267 22.0908 25.7574C20.3896 29.9868 15.871 35.2358 12.6388 38.0259C12.0639 38.5248 11.564 38.875 11.154 39.1621C10.9664 39.2935 10.7977 39.4117 10.6491 39.525C9.99346 40.0269 9.38348 40.5699 8.8015 41.088L8.80144 41.0881C7.1918 42.5211 5.79622 43.7635 4.23961 43.4182C4.25403 41.9983 4.02976 40.6129 3.75067 39.2435C4.18949 38.8626 4.18949 38.5508 4.18949 38.239C4.18949 37.9272 4.18949 37.6155 4.62831 37.2346C4.47593 37.064 4.36347 37.1566 4.25074 37.2494C4.16074 37.3235 4.07058 37.3977 3.95981 37.3383C4.14442 35.2164 4.86268 32.8813 5.7057 30.5211C5.8821 30.0337 6.02459 29.5271 6.16522 29.0271C6.38275 28.2538 6.59581 27.4963 6.92299 26.8504C7.1244 26.4508 7.34052 26.0943 7.54565 25.7559C8.06691 24.896 8.51712 24.1533 8.47417 23.1199C12.7232 16.9464 17.3378 13.0777 22.0007 9.54023C22.6415 9.41837 23.2413 9.03614 23.8401 8.65449C24.0197 8.54005 24.1992 8.42565 24.3797 8.31835C24.5616 8.29909 24.7446 8.28814 24.9275 8.27719C25.5927 8.2374 26.2567 8.19767 26.859 7.75889C26.2309 6.75013 25.1182 5.63697 23.8511 4.99831C22.9638 4.55315 22.1206 4.655 21.3851 4.74385C21.1569 4.77141 20.9392 4.79771 20.7336 4.80606C17.6935 6.23819 14.7675 9.21583 12.1389 11.8907L12.1389 11.8908C11.9262 12.1073 11.7154 12.3218 11.5066 12.5334C4.83311 19.311 1.50647 28.2407 0 35.0673C0.137947 35.7564 0.119753 36.3518 0.100584 36.9792C0.0858821 37.4604 0.0706062 37.9603 0.124758 38.5357C0.204084 39.3767 0.433408 40.1039 0.633165 40.6626C0.830878 41.2203 0.966582 41.9119 1.09996 42.5915C1.26965 43.4563 1.43558 44.3019 1.72065 44.828C2.43386 46.1391 3.45645 46.6835 4.7235 46.9953C4.70116 47.0679 4.66672 47.1426 4.63225 47.2174C4.51203 47.4781 4.39144 47.7396 4.78263 47.9198C5.68023 48.1237 6.51054 47.8997 7.34138 47.6755C8.12658 47.4636 8.91226 47.2516 9.75564 47.4006C9.99271 47.2722 10.2302 47.1462 10.4677 47.0202C12.3892 46.0005 14.3134 44.9795 16.0354 42.6816C16.6791 42.4399 17.258 41.7865 17.8365 41.1334C18.3474 40.5568 18.8579 39.9805 19.4125 39.6884C19.7565 38.7078 20.5986 37.5659 21.393 36.4888L21.3931 36.4888L21.3931 36.4887ZM6.92582 22.9347C6.82831 22.9299 6.73108 22.925 6.64893 23.0011C7.23488 22.3331 7.82847 21.5109 8.44174 20.6614C9.40442 19.3278 10.4156 17.9272 11.5217 16.9507C11.0132 17.7086 10.393 18.5115 9.73098 19.3686C8.89286 20.4537 7.98773 21.6256 7.15733 22.9025C7.08535 22.9426 7.00549 22.9387 6.92582 22.9347ZM22.6386 34.6944L22.6386 34.6944L22.6489 34.6771C22.5595 34.7908 22.4896 34.9046 22.4398 35.0083C22.5156 34.9006 22.5772 34.7974 22.6386 34.6944ZM42.7922 20.7308C43.7352 20.1311 44.669 19.5371 45.4682 19.7315C41.7082 24.9207 37.1592 28.6065 32.7249 31.2382C35.2135 27.2212 37.6524 24.619 40.8997 21.7151C41.5086 21.5472 42.1525 21.1377 42.7922 20.7309L42.7922 20.7308ZM20.0955 36.9473C20.3357 36.3709 20.61 36.0516 20.8796 35.7378C21.1142 35.4649 21.3452 35.196 21.5471 34.7656C20.8144 34.9881 20.1005 36.3094 20.0955 36.9473ZM19.5322 36.1013C19.7514 36.3194 19.2574 37.6299 18.7541 37.1554C18.9698 36.9845 19.054 36.8345 19.1565 36.6515C19.2411 36.5005 19.3382 36.3272 19.5322 36.1013ZM13.0131 44.1706C13.6258 43.3875 14.2732 42.6436 14.9174 41.9033C16.6175 39.9497 18.2957 38.0214 19.2575 35.4633C18.6576 36.2663 17.9738 37.0922 17.2769 37.934C15.6035 39.9553 13.8546 42.0676 13.0131 44.1706ZM6.37386 24.8234C6.18765 25.0745 6.00168 25.3253 5.95015 25.5543C5.7856 25.1278 6.18041 24.6091 6.57218 24.0945C6.64398 24.0002 6.71567 23.906 6.78379 23.8126C6.90359 24.1089 6.63849 24.4664 6.37386 24.8234Z" fill="#006AEB"/>
<path d="M54.1177 34.9989C54.5557 35.1747 53.9089 35.6592 53.7732 35.675C53.6541 35.5353 53.8049 34.9163 54.1177 34.9989Z" fill="#006AEB"/>
<path d="M48.5477 21.51C48.7715 21.2619 49.0283 21.2568 49.3333 21.6142C48.5353 22.062 48.9346 23.3541 48.03 24.0002C47.8145 23.2449 48.841 22.2508 48.5477 21.51Z" fill="#006AEB"/>
<path d="M44.1792 35.6336C44.284 35.8357 44.1845 36.0775 43.981 36.3247C43.9599 36.3404 43.9342 36.3509 43.9131 36.3667C43.5279 36.1962 44.085 35.8762 44.1792 35.6336Z" fill="#006AEB"/>
<path d="M44.0341 36.6408C44.0235 36.6558 44.0077 36.6768 43.9926 36.6926C43.9821 36.6873 43.9768 36.6873 43.9662 36.6821C43.9873 36.667 44.013 36.6558 44.0341 36.6408Z" fill="#006AEB"/>
<path d="M22.557 35.5059C22.609 35.3978 22.6821 35.2791 22.7763 35.1604C22.7085 35.2738 22.6407 35.3873 22.557 35.5059Z" fill="#006AEB"/>
<path fill-rule="evenodd" clip-rule="evenodd" d="M200.667 53.991C195.99 53.5623 191.821 53.3472 187.633 53.5752C185.855 53.6719 184.063 53.6664 182.276 53.661L182.241 53.6609C177.485 53.646 172.726 53.616 167.97 53.5711C166.589 53.5578 165.209 53.5179 163.83 53.4781C161.609 53.4139 159.387 53.3496 157.157 53.3962C153.428 53.475 149.692 53.4314 145.956 53.3879C144.139 53.3667 142.323 53.3455 140.507 53.3384C138.128 53.3289 135.747 53.3282 133.371 53.3847C131.104 53.4392 128.838 53.5215 126.573 53.6038L126.573 53.6038C125.53 53.6417 124.488 53.6795 123.446 53.7147C119.92 53.8344 116.394 53.9535 112.868 54.0706C111.935 54.1016 111.001 54.1383 110.068 54.1749C107.907 54.2599 105.745 54.3448 103.582 54.3591C100.748 54.378 97.9127 54.3577 95.0772 54.3373C93.0165 54.3226 90.9557 54.3078 88.8955 54.3081C86.0073 54.3084 83.1195 54.3239 80.2317 54.3395L80.2316 54.3395C77.7139 54.353 75.1963 54.3665 72.6783 54.37C66.9839 54.3782 61.2888 54.3659 55.5937 54.3462C54.9597 54.3438 54.3251 54.3165 53.6905 54.2891C53.0269 54.2605 52.3634 54.2319 51.7006 54.2319C50.6019 54.2321 49.505 54.2762 48.4079 54.3204C46.6293 54.392 44.8502 54.4635 43.0617 54.3482C42.6121 54.3193 42.159 54.3337 41.7061 54.348C41.5091 54.3543 41.3122 54.3605 41.1155 54.3632C40.1401 54.3762 39.1647 54.3901 38.1895 54.404L38.1894 54.404C35.8515 54.4373 33.5139 54.4707 31.1755 54.4918C30.7509 54.4955 30.3252 54.4723 29.8995 54.4491C29.4607 54.4251 29.0219 54.4012 28.5843 54.4067C26.3926 54.4329 24.2009 54.4699 22.0091 54.5069L22.0091 54.5069C20.6727 54.5294 19.3363 54.552 17.9999 54.5721C17.3253 54.5824 16.6505 54.5858 15.9756 54.5893H15.9756C15.3555 54.5924 14.7355 54.5956 14.1155 54.6041L14.0343 54.6051C13.4853 54.6121 12.9318 54.6192 12.3902 54.6776C9.40871 54.9954 6.41129 55.173 3.3335 55.1512C3.35617 55.3461 3.37663 55.5382 3.39688 55.7284C3.44323 56.1637 3.48846 56.5885 3.55649 57.0109C3.65568 57.6309 3.79107 58.2501 4.49771 58.8537C4.74458 58.8993 5.00528 58.9609 5.2754 59.0246C5.91155 59.1748 6.59995 59.3373 7.283 59.3334C8.48504 59.3267 9.68454 59.1977 10.8825 59.069H10.8825C11.251 59.0293 11.6194 58.9897 11.9877 58.9537C12.704 58.8838 13.4186 58.8034 14.1332 58.723L14.1333 58.7229L14.1334 58.7229C14.8379 58.6436 15.5426 58.5643 16.2492 58.4951C16.4681 58.4735 16.6932 58.4769 16.9177 58.4802C17.2027 58.4845 17.4869 58.4888 17.7566 58.442C20.1776 58.0218 22.6427 57.9244 25.1076 57.8271H25.1077C26.3786 57.7769 27.6496 57.7267 28.9144 57.6322C29.2136 57.6097 29.5177 57.6222 29.8219 57.6347C29.9506 57.64 30.0792 57.6452 30.2075 57.6479C30.5772 57.6551 30.9472 57.6675 31.3172 57.68C32.0971 57.7062 32.877 57.7324 33.6538 57.7098C34.5645 57.6835 35.4749 57.6478 36.3852 57.612C39.6445 57.4841 42.9035 57.3562 46.1735 57.6615C46.5245 57.6943 46.8747 57.7329 47.2249 57.7715C48.5151 57.9138 49.8029 58.0558 51.1127 57.9065C51.342 57.8804 51.5877 57.9183 51.8275 57.9553C51.8763 57.9628 51.9248 57.9703 51.9729 57.9772C54.9783 58.4059 57.9974 58.474 61.0296 58.3569C62.1069 58.3154 63.2023 58.276 64.2717 58.376C66.114 58.5487 67.9268 58.4124 69.738 58.2762C69.9967 58.2568 70.2554 58.2373 70.5142 58.2188C72.6718 58.0909 75.2571 57.8702 77.9977 57.6362C79.0627 57.5453 80.1511 57.4523 81.247 57.3621L81.2806 57.3595C81.8381 57.3166 82.437 57.2705 82.9614 57.3872C83.9873 57.6142 85.0119 57.6103 86.0416 57.6063C86.3025 57.6053 86.5638 57.6043 86.8255 57.607C88.4075 57.6241 89.9945 57.6676 91.5714 57.786C92.4059 57.8487 93.2369 57.9478 94.068 58.0468L94.068 58.0469C94.9502 58.152 95.8323 58.2572 96.7185 58.3188C102.188 58.6985 107.663 58.9782 113.143 58.7217C114.123 58.676 115.101 58.611 116.078 58.5461L116.078 58.5461C116.892 58.492 117.705 58.438 118.519 58.395C119.143 58.362 119.767 58.3184 120.392 58.2747C121.995 58.1627 123.599 58.0505 125.195 58.1181C127.853 58.2305 130.479 58.0693 133.104 57.9081C134.419 57.8273 135.734 57.7466 137.053 57.7003C138.613 57.6457 140.17 57.5549 141.727 57.4641L141.727 57.4641C142.75 57.4044 143.774 57.3448 144.798 57.2954C146.14 57.2303 147.483 57.1756 148.825 57.1208L148.825 57.1208C149.927 57.0759 151.029 57.0309 152.13 56.9803C153.422 56.9211 154.712 56.8415 156.002 56.7605C156.901 56.7035 157.8 56.6436 158.699 56.5837L158.699 56.5837C159.733 56.5148 160.766 56.4459 161.8 56.3815C163.017 56.306 164.234 56.2379 165.453 56.1862C166.263 56.1516 167.075 56.1252 167.887 56.0988L167.887 56.0988C169.518 56.0457 171.149 55.9927 172.771 55.8732C174.14 55.7725 175.486 55.7099 176.862 55.7786L177.084 55.7898C178.305 55.8516 179.548 55.9144 180.743 55.7868C183.032 55.5425 185.325 55.4724 187.629 55.452L187.889 55.4499C188.523 55.4452 189.158 55.4404 189.788 55.4009C190.896 55.3312 191.914 55.1593 192.938 54.9866C193.834 54.8355 194.733 54.6838 195.699 54.5993C196.184 54.5569 196.623 54.5398 197.054 54.523C197.731 54.4966 198.389 54.4709 199.177 54.3496C199.216 54.3435 199.266 54.3376 199.325 54.3306C199.625 54.2948 200.157 54.2316 200.667 53.991ZM123.447 56.5605L122.729 56.915L121.53 56.983C121.53 56.983 119.757 56.7333 121.339 56.4836H122.393L123.447 56.5605ZM130.021 57.1647L131.359 56.8102L129.396 56.7333H127.434C124.49 56.983 127.791 57.2328 127.791 57.2328L130.021 57.1647Z" fill="#006AEB"/>
<path d="M81.933 58.3906H83.9664L85.9998 58.4763L84.6132 58.8676L82.3021 58.9427C82.3021 58.9427 78.882 58.667 81.933 58.3906Z" fill="#006AEB"/>
<path d="M35.4861 57.9387L40.0707 57.2582L44.6665 56.6665L41.5952 57.5395L36.3962 58.391C36.3962 58.391 28.6487 59.2481 35.4861 57.9387Z" fill="#006AEB"/>
<path d="M93.51 57.8143L98.0868 57.6926L102.667 57.6565L99.5556 58.1305L94.3564 58.3438C94.3564 58.3438 86.651 58.2717 93.51 57.8143Z" fill="#006AEB"/>
<path d="M54.3175 58.4798L50.4976 58.6649L46.6665 58.6668L49.2236 57.7044L53.5563 57.3335C53.5563 57.3335 60.0152 57.6128 54.3175 58.4798Z" fill="#006AEB"/>
<path d="M26.5895 58.2137H33.9614L41.3333 58.3542L36.3075 58.9957L27.9298 59.1196C27.9298 59.1196 15.532 58.6667 26.5895 58.2137Z" fill="#006AEB"/>
<path d="M77.2994 57.7245H78.3159L79.3332 57.8101L78.6399 58.2007L77.4844 58.2758C77.4844 58.2758 75.7745 58.0002 77.2994 57.7245Z" fill="#006AEB"/>
<path d="M39.2996 57.7245H40.3164L41.3332 57.8101L40.6397 58.2007L39.484 58.2758C39.484 58.2758 37.7745 58.0002 39.2996 57.7245Z" fill="#006AEB"/>
<path d="M17.2996 59.0575H18.3164L19.3332 59.1431L18.6397 59.5337L17.484 59.6088C17.484 59.6088 15.7745 59.3332 17.2996 59.0575Z" fill="#006AEB"/>
</svg>
